<svg width="240" height="84" viewBox="0 0 240 84" fill="none" xmlns="http://www.w3.org/2000/svg">
<g clip-path="url(#clip0_404_17424)">
<path d="M220.888 0.750268H19.1229C18.3874 0.750268 17.6608 0.750268 16.9273 0.754393C16.3133 0.758518 15.7041 0.770501 15.0842 0.780587C13.7375 0.796884 12.3939 0.918725 11.0652 1.14505C9.73831 1.3763 8.45301 1.81228 7.25274 2.43824C6.05395 3.06949 4.95857 3.88974 4.00636 4.86922C3.04914 5.84596 2.25123 6.97493 1.6433 8.21272C1.03369 9.44805 0.610991 10.7718 0.389791 12.1383C0.166488 13.5031 0.0463264 14.8836 0.0303851 16.2674C0.011773 16.8998 0.00980746 17.5343 0 18.1667V65.8399C0.00980746 66.4803 0.011773 67.1007 0.0303851 67.7413C0.0463313 69.1251 0.166493 70.5055 0.389791 71.8702C0.610381 73.2375 1.03311 74.562 1.6433 75.7978C2.25095 77.0316 3.04898 78.156 4.00636 79.1273C4.95496 80.1112 6.05104 80.932 7.25274 81.5584C8.453 82.186 9.73816 82.6246 11.0652 82.8594C12.3941 83.0839 13.7376 83.2058 15.0842 83.2241C15.7041 83.2381 16.3133 83.2461 16.9273 83.2461C17.6608 83.2503 18.3875 83.2503 19.1229 83.2503H220.888C221.609 83.2503 222.341 83.2503 223.062 83.2461C223.673 83.2461 224.3 83.2381 224.911 83.2241C226.255 83.2068 227.596 83.0849 228.922 82.8594C230.253 82.6229 231.543 82.1845 232.749 81.5584C233.95 80.9316 235.045 80.1108 235.993 79.1273C236.948 78.1522 237.747 77.0286 238.363 75.7978C238.968 74.5611 239.387 73.2367 239.604 71.8702C239.828 70.5053 239.952 69.1252 239.977 67.7413C239.984 67.1007 239.984 66.4803 239.984 65.8399C240 65.0906 240 64.3454 240 63.5839V20.4185C240 19.6632 240 18.914 239.984 18.1667C239.984 17.5343 239.984 16.8998 239.977 16.2674C239.952 14.8834 239.828 13.5032 239.604 12.1382C239.386 10.7725 238.968 9.44887 238.363 8.21264C237.125 5.73161 235.161 3.71207 232.749 2.43805C231.543 1.81363 230.253 1.37776 228.922 1.14487C227.596 0.917543 226.255 0.795659 224.911 0.780298C224.3 0.770233 223.673 0.758147 223.062 0.754125C222.341 0.75 221.609 0.750268 220.888 0.750268Z" fill="#A6A6A6"/>
<path d="M16.9371 81.4453C16.326 81.4453 15.7297 81.4373 15.1234 81.4232C13.8675 81.4064 12.6144 81.294 11.3746 81.0868C10.2186 80.8821 9.09867 80.5012 8.05185 79.9568C7.01463 79.4169 6.06861 78.7089 5.25001 77.8601C4.41957 77.0212 3.72818 76.0483 3.20326 74.9798C2.67255 73.9044 2.30527 72.7517 2.11421 71.5618C1.90788 70.2833 1.79625 68.9905 1.78028 67.6946C1.76756 67.2596 1.75092 65.8114 1.75092 65.8114V18.1665C1.75092 18.1665 1.76865 16.7404 1.78038 16.3215C1.79567 15.0276 1.90666 13.7368 2.11237 12.4603C2.30378 11.2672 2.67135 10.1112 3.20234 9.03224C3.72533 7.96451 4.41288 6.99084 5.23832 6.14897C6.06283 5.29909 7.01189 4.5875 8.05087 4.04012C9.09529 3.49744 10.2131 3.11926 11.3668 2.91824C12.6107 2.70904 13.868 2.59593 15.1283 2.57987L16.9381 2.55469H223.052L224.883 2.58088C226.132 2.59614 227.378 2.70824 228.611 2.91622C229.776 3.11976 230.906 3.50058 231.962 4.04616C234.043 5.14928 235.737 6.89452 236.805 9.03727C237.328 10.1088 237.69 11.2554 237.879 12.4382C238.087 13.7252 238.204 15.0261 238.227 16.3305C238.233 16.9146 238.233 17.542 238.233 18.1665C238.249 18.9399 238.249 19.6761 238.249 20.4183V63.5836C238.249 64.333 238.249 65.0641 238.233 65.8013C238.233 66.472 238.233 67.0864 238.225 67.7188C238.202 68.9999 238.087 70.2776 237.883 71.5416C237.696 72.74 237.33 73.9017 236.8 74.986C236.271 76.0428 235.584 77.0074 234.763 77.844C233.943 78.6974 232.996 79.4095 231.956 79.9529C230.903 80.5015 229.775 80.8838 228.611 81.0868C227.371 81.2951 226.118 81.4075 224.862 81.4232C224.274 81.4373 223.659 81.4453 223.062 81.4453L220.888 81.4494L16.9371 81.4453Z" fill="black"/>
<path d="M49.6769 42.6202C49.6984 40.8987 50.1431 39.2108 50.9694 37.7135C51.7958 36.2162 52.977 34.9582 54.4032 34.0565C53.4972 32.7259 52.302 31.6308 50.9124 30.8583C49.5229 30.0858 47.9773 29.6571 46.3985 29.6063C43.0306 29.2428 39.7655 31.6788 38.0493 31.6788C36.2999 31.6788 33.6575 29.6424 30.812 29.7026C28.9715 29.7638 27.1778 30.3142 25.6057 31.3002C24.0335 32.2861 22.7365 33.6741 21.8411 35.3289C17.9622 42.235 20.8555 52.3846 24.5711 57.967C26.4301 60.7006 28.6028 63.754 31.4456 63.6457C34.2275 63.527 35.2665 61.8215 38.6245 61.8215C41.9514 61.8215 42.9262 63.6457 45.8267 63.5769C48.8118 63.527 50.6926 60.8312 52.4864 58.0718C53.8221 56.124 54.8499 53.9713 55.5317 51.6934C53.7975 50.9391 52.3175 49.6765 51.2763 48.063C50.2352 46.4495 49.6789 44.5566 49.6769 42.6202Z" fill="white"/>
<path d="M44.1982 25.935C45.8258 23.9257 46.6277 21.3431 46.4335 18.7356C43.9469 19.0042 41.65 20.2263 40.0004 22.1585C39.1938 23.1025 38.5761 24.2006 38.1825 25.3902C37.7889 26.5798 37.6272 27.8375 37.7065 29.0914C38.9503 29.1046 40.1807 28.8274 41.3052 28.2806C42.4297 27.7339 43.4189 26.9319 44.1982 25.935Z" fill="white"/>
<path d="M84.8421 56.7256H75.3487L73.0689 63.6483H69.0479L78.0398 38.0361H82.2175L91.2095 63.6483H87.1199L84.8421 56.7256ZM76.3319 53.5311H83.857L80.1474 42.2961H80.0436L76.3319 53.5311Z" fill="white"/>
<path d="M110.629 54.3126C110.629 60.1154 107.609 63.8436 103.052 63.8436C101.897 63.9057 100.749 63.6322 99.7383 63.0544C98.7279 62.4766 97.8962 61.6179 97.3383 60.5766H97.252V69.8256H93.5248V44.9749H97.1326V48.0808H97.2011C97.7847 47.0444 98.6305 46.1902 99.6486 45.6089C100.667 45.0276 101.819 44.741 102.983 44.7796C107.591 44.7796 110.629 48.5259 110.629 54.3126ZM106.798 54.3126C106.798 50.532 104.898 48.0465 102 48.0465C99.1519 48.0465 97.2364 50.5844 97.2364 54.3126C97.2364 58.0751 99.1519 60.5948 102 60.5948C104.898 60.5948 106.798 58.1274 106.798 54.3126Z" fill="white"/>
<path d="M130.615 54.3126C130.615 60.1154 127.595 63.8436 123.037 63.8436C121.882 63.9057 120.734 63.6322 119.724 63.0544C118.713 62.4766 117.882 61.6179 117.324 60.5766H117.237V69.8256H113.51V44.9749H117.118V48.0808H117.187C117.77 47.0444 118.616 46.1902 119.634 45.6089C120.652 45.0276 121.804 44.741 122.968 44.7796C127.577 44.7796 130.615 48.5259 130.615 54.3126ZM126.784 54.3126C126.784 50.532 124.884 48.0465 121.985 48.0465C119.137 48.0465 117.222 50.5844 117.222 54.3126C117.222 58.075 119.137 60.5948 121.985 60.5948C124.884 60.5948 126.784 58.1274 126.784 54.3126Z" fill="white"/>
<path d="M143.823 56.5121C144.099 59.052 146.498 60.7196 149.777 60.7196C152.919 60.7196 155.179 59.0519 155.179 56.7618C155.179 54.7738 153.816 53.5835 150.588 52.7677L147.36 51.9681C142.787 50.8321 140.664 48.6326 140.664 45.0635C140.664 40.6445 144.409 37.6091 149.726 37.6091C154.989 37.6091 158.597 40.6445 158.718 45.0635H154.956C154.73 42.5076 152.676 40.9647 149.673 40.9647C146.671 40.9647 144.616 42.5257 144.616 44.7977C144.616 46.6084 145.928 47.6739 149.139 48.4896L151.883 49.1824C156.993 50.4252 159.116 52.5361 159.116 56.2823C159.116 61.074 155.404 64.0751 149.501 64.0751C143.978 64.0751 140.248 61.1445 140.008 56.5119L143.823 56.5121Z" fill="white"/>
<path d="M167.16 40.5559V44.975H170.613V48.0103H167.16V58.3047C167.16 59.9039 167.852 60.6492 169.37 60.6492C169.78 60.6418 170.189 60.6122 170.596 60.5605V63.5777C169.913 63.7088 169.22 63.7682 168.526 63.7549C164.849 63.7549 163.416 62.335 163.416 58.7135V48.0103H160.775V44.975H163.415V40.5559H167.16Z" fill="white"/>
<path d="M172.613 54.3129C172.613 48.4376 175.978 44.7456 181.225 44.7456C186.49 44.7456 189.839 48.4375 189.839 54.3129C189.839 60.2043 186.507 63.8801 181.225 63.8801C175.944 63.8801 172.613 60.2043 172.613 54.3129ZM186.041 54.3129C186.041 50.2825 184.245 47.9038 181.225 47.9038C178.205 47.9038 176.411 50.3007 176.411 54.3129C176.411 58.3593 178.205 60.7199 181.225 60.7199C184.245 60.7199 186.041 58.3593 186.041 54.3129Z" fill="white"/>
<path d="M192.912 44.975H196.467V48.1533H196.553C196.794 47.1607 197.359 46.2834 198.155 45.669C198.95 45.0547 199.927 44.7406 200.921 44.7796C201.351 44.7781 201.779 44.826 202.198 44.9226V48.5078C201.656 48.3374 201.09 48.2592 200.523 48.2762C199.982 48.2536 199.442 48.3518 198.941 48.564C198.44 48.7762 197.989 49.0974 197.62 49.5056C197.251 49.9137 196.973 50.3991 196.803 50.9285C196.634 51.4579 196.578 52.0187 196.639 52.5724V63.6483H192.912L192.912 44.975Z" fill="white"/>
<path d="M219.382 58.1639C218.881 61.5538 215.671 63.8801 211.564 63.8801C206.281 63.8801 203.002 60.2405 203.002 54.4015C203.002 48.5443 206.299 44.7456 211.407 44.7456C216.431 44.7456 219.59 48.2945 219.59 53.9564V55.2696H206.765V55.5012C206.706 56.1884 206.789 56.8808 207.01 57.5322C207.231 58.1836 207.585 58.7792 208.047 59.2795C208.509 59.7797 209.069 60.1732 209.69 60.4337C210.311 60.6942 210.979 60.8158 211.65 60.7904C212.53 60.8753 213.414 60.6655 214.17 60.1923C214.925 59.719 215.512 59.0077 215.843 58.1639L219.382 58.1639ZM206.783 52.5908H215.861C215.894 51.9728 215.803 51.3545 215.593 50.7745C215.383 50.1945 215.059 49.6654 214.641 49.2204C214.222 48.7753 213.719 48.424 213.163 48.1885C212.606 47.9529 212.008 47.8381 211.407 47.8514C210.8 47.8477 210.198 47.9676 209.637 48.2043C209.075 48.441 208.564 48.7897 208.134 49.2303C207.705 49.6709 207.364 50.1947 207.132 50.7715C206.9 51.3483 206.781 51.9666 206.783 52.5908Z" fill="white"/>
<path d="M75.8648 18.7579C76.6462 18.7002 77.4303 18.8216 78.1606 19.1133C78.8908 19.405 79.549 19.8597 80.0877 20.4447C80.6264 21.0297 81.0321 21.7303 81.2756 22.4961C81.5191 23.2618 81.5943 24.0736 81.4958 24.8728C81.4958 28.8045 79.4294 31.0645 75.8648 31.0645H71.5421V18.7579H75.8648ZM73.4008 29.324H75.6571C76.2155 29.3584 76.7743 29.2642 77.2928 29.0485C77.8114 28.8327 78.2766 28.5007 78.6546 28.0768C79.0327 27.6528 79.314 27.1474 79.4782 26.5975C79.6424 26.0476 79.6853 25.467 79.6037 24.8979C79.6793 24.3311 79.6321 23.7541 79.4654 23.2082C79.2987 22.6623 79.0167 22.1611 78.6395 21.7405C78.2623 21.3199 77.7993 20.9903 77.2837 20.7753C76.7681 20.5603 76.2127 20.4653 75.6571 20.497H73.4008V29.324Z" fill="white"/>
<path d="M83.5956 26.4167C83.5388 25.8063 83.6067 25.1906 83.7949 24.6088C83.9831 24.027 84.2875 23.4921 84.6885 23.0384C85.0895 22.5847 85.5783 22.2222 86.1235 21.9741C86.6687 21.726 87.2584 21.5979 87.8546 21.5979C88.4508 21.5979 89.0404 21.726 89.5856 21.9741C90.1309 22.2222 90.6197 22.5847 91.0207 23.0384C91.4217 23.4921 91.726 24.027 91.9143 24.6088C92.1025 25.1906 92.1703 25.8063 92.1136 26.4167C92.1714 27.0276 92.1043 27.6443 91.9166 28.227C91.7289 28.8097 91.4247 29.3456 91.0236 29.8002C90.6225 30.2548 90.1334 30.6181 89.5876 30.8667C89.0418 31.1153 88.4515 31.2437 87.8546 31.2437C87.2577 31.2437 86.6673 31.1153 86.1216 30.8667C85.5758 30.6181 85.0866 30.2548 84.6855 29.8002C84.2844 29.3456 83.9802 28.8097 83.7925 28.227C83.6048 27.6443 83.5377 27.0276 83.5956 26.4167ZM90.2803 26.4167C90.2803 24.4035 89.4009 23.2263 87.8575 23.2263C86.3083 23.2263 85.4367 24.4035 85.4367 26.4167C85.4367 28.446 86.3083 29.6142 87.8575 29.6142C89.4009 29.6142 90.2803 28.4379 90.2803 26.4167Z" fill="white"/>
<path d="M103.437 31.0641H101.588L99.7211 24.2241H99.5801L97.7213 31.0641H95.89L93.4006 21.7769H95.2084L96.8262 28.8636H96.9594L98.8162 21.7769H100.526L102.383 28.8636H102.524L104.134 21.7769H105.916L103.437 31.0641Z" fill="white"/>
<path d="M108.009 21.7768H109.725V23.2522H109.858C110.084 22.7223 110.465 22.2781 110.948 21.9815C111.432 21.6849 111.993 21.5506 112.553 21.5975C112.993 21.5635 113.434 21.6317 113.844 21.7969C114.255 21.9621 114.624 22.2201 114.924 22.5518C115.224 22.8836 115.448 23.2805 115.579 23.7133C115.709 24.146 115.744 24.6035 115.679 25.0518V31.064H113.897V25.5121C113.897 24.0196 113.266 23.2773 111.948 23.2773C111.65 23.2631 111.352 23.3153 111.075 23.4304C110.798 23.5456 110.549 23.7209 110.344 23.9445C110.139 24.168 109.984 24.4345 109.888 24.7255C109.793 25.0166 109.76 25.3255 109.792 25.6309V31.0641H108.009L108.009 21.7768Z" fill="white"/>
<path d="M118.52 18.1514H120.302V31.0641H118.52V18.1514Z" fill="white"/>
<path d="M122.779 26.4164C122.723 25.806 122.791 25.1902 122.979 24.6084C123.167 24.0266 123.472 23.4917 123.873 23.0379C124.274 22.5842 124.763 22.2217 125.308 21.9736C125.853 21.7256 126.443 21.5974 127.039 21.5974C127.635 21.5974 128.225 21.7256 128.77 21.9736C129.315 22.2217 129.804 22.5842 130.205 23.0379C130.606 23.4917 130.911 24.0266 131.099 24.6084C131.287 25.1902 131.355 25.806 131.298 26.4164C131.356 27.0273 131.289 27.644 131.101 28.2267C130.914 28.8094 130.609 29.3453 130.208 29.7999C129.807 30.2545 129.318 30.6177 128.772 30.8663C128.226 31.1149 127.636 31.2433 127.039 31.2433C126.442 31.2433 125.852 31.1149 125.306 30.8663C124.76 30.6177 124.271 30.2545 123.87 29.7999C123.469 29.3453 123.164 28.8094 122.977 28.2267C122.789 27.644 122.722 27.0273 122.779 26.4164ZM129.464 26.4164C129.464 24.4032 128.585 23.2259 127.041 23.2259C125.492 23.2259 124.621 24.4032 124.621 26.4164C124.621 28.4457 125.492 29.6139 127.041 29.6139C128.585 29.6138 129.464 28.4376 129.464 26.4164Z" fill="white"/>
<path d="M133.175 28.4377C133.175 26.766 134.385 25.8022 136.534 25.6652L138.98 25.5202V24.7186C138.98 23.7377 138.349 23.1838 137.131 23.1838C136.136 23.1838 135.447 23.5594 135.249 24.2161H133.523C133.706 22.6208 135.165 21.5977 137.213 21.5977C139.478 21.5977 140.755 22.7568 140.755 24.7186V31.0642H139.039V29.759H138.898C138.612 30.2272 138.21 30.6089 137.733 30.8651C137.257 31.1212 136.722 31.2428 136.185 31.2172C135.806 31.2578 135.423 31.2162 135.06 31.0951C134.698 30.974 134.364 30.7762 134.08 30.5143C133.797 30.2524 133.57 29.9324 133.414 29.5747C133.258 29.217 133.176 28.8297 133.175 28.4377ZM138.98 27.6441V26.8677L136.775 27.0127C135.531 27.0983 134.967 27.5334 134.967 28.3521C134.967 29.188 135.672 29.6744 136.642 29.6744C136.926 29.704 137.213 29.6745 137.485 29.5877C137.758 29.5009 138.011 29.3585 138.229 29.1691C138.448 28.9797 138.626 28.747 138.755 28.4851C138.884 28.2231 138.961 27.9371 138.98 27.6441Z" fill="white"/>
<path d="M143.097 26.4165C143.097 23.4819 144.564 21.6228 146.846 21.6228C147.41 21.5961 147.97 21.7351 148.461 22.0236C148.951 22.3121 149.352 22.7383 149.615 23.2522H149.748V18.1514H151.531V31.0641H149.823V29.5968H149.682C149.398 30.1073 148.983 30.5281 148.483 30.8137C147.984 31.0993 147.417 31.2389 146.846 31.2172C144.548 31.2173 143.097 29.3582 143.097 26.4165ZM144.938 26.4165C144.938 28.3864 145.841 29.5717 147.351 29.5717C148.853 29.5717 149.782 28.3693 149.782 26.4246C149.782 24.489 148.844 23.2694 147.351 23.2694C145.851 23.2694 144.938 24.4628 144.938 26.4165Z" fill="white"/>
<path d="M158.905 26.4164C158.848 25.8061 158.916 25.1903 159.104 24.6085C159.292 24.0268 159.597 23.4919 159.998 23.0382C160.399 22.5845 160.888 22.2219 161.433 21.9739C161.978 21.7258 162.568 21.5977 163.164 21.5977C163.76 21.5977 164.35 21.7258 164.895 21.9739C165.44 22.2219 165.929 22.5845 166.33 23.0382C166.731 23.4919 167.035 24.0268 167.224 24.6085C167.412 25.1903 167.48 25.8061 167.423 26.4164C167.481 27.0274 167.414 27.644 167.226 28.2268C167.038 28.8095 166.734 29.3453 166.333 29.7999C165.932 30.2545 165.443 30.6178 164.897 30.8664C164.351 31.115 163.761 31.2435 163.164 31.2435C162.567 31.2435 161.977 31.115 161.431 30.8664C160.885 30.6178 160.396 30.2545 159.995 29.7999C159.594 29.3453 159.289 28.8095 159.102 28.2268C158.914 27.644 158.847 27.0274 158.905 26.4164ZM165.59 26.4164C165.59 24.4033 164.71 23.226 163.167 23.226C161.618 23.226 160.746 24.4033 160.746 26.4165C160.746 28.4457 161.618 29.6139 163.167 29.6139C164.71 29.6139 165.59 28.4376 165.59 26.4164Z" fill="white"/>
<path d="M169.814 21.777H171.53V23.2524H171.663C171.889 22.7225 172.27 22.2783 172.753 21.9817C173.237 21.6851 173.798 21.5509 174.358 21.5978C174.798 21.5638 175.239 21.6319 175.649 21.7971C176.06 21.9623 176.429 22.2203 176.729 22.5521C177.029 22.8838 177.253 23.2808 177.384 23.7135C177.514 24.1463 177.549 24.6038 177.484 25.052V31.0642H175.702V25.5123C175.702 24.0198 175.071 23.2776 173.753 23.2776C173.455 23.2633 173.157 23.3155 172.88 23.4307C172.603 23.5458 172.354 23.7212 172.149 23.9447C171.944 24.1683 171.789 24.4347 171.693 24.7258C171.598 25.0169 171.565 25.3257 171.597 25.6311V31.0643H169.814V21.777Z" fill="white"/>
<path d="M187.555 19.4646V21.8191H189.512V23.363H187.555V28.1386C187.555 29.1114 187.945 29.5374 188.832 29.5374C189.059 29.5367 189.286 29.5225 189.512 29.4951V31.0218C189.192 31.0807 188.868 31.1121 188.542 31.1155C186.56 31.1155 185.771 30.3984 185.771 28.6079V23.3629H184.337V21.8191H185.771V19.4646H187.555Z" fill="white"/>
<path d="M191.947 18.1514H193.713V23.2694H193.854C194.091 22.7345 194.483 22.2878 194.976 21.9901C195.468 21.6924 196.039 21.5581 196.608 21.6057C197.045 21.5812 197.482 21.6563 197.888 21.8255C198.294 21.9947 198.658 22.2539 198.955 22.5846C199.252 22.9153 199.475 23.3093 199.607 23.7386C199.739 24.1679 199.777 24.6218 199.718 25.068V31.0642H197.934V25.5202C197.934 24.0367 197.262 23.2854 196.003 23.2854C195.697 23.2596 195.389 23.3029 195.1 23.4123C194.812 23.5218 194.55 23.6947 194.334 23.9189C194.117 24.1432 193.951 24.4134 193.846 24.7107C193.742 25.008 193.702 25.3252 193.729 25.64V31.0641H191.947L191.947 18.1514Z" fill="white"/>
<path d="M210.111 28.5565C209.869 29.4053 209.344 30.1395 208.629 30.6307C207.913 31.1219 207.053 31.3387 206.198 31.2434C205.603 31.2595 205.011 31.1423 204.465 30.8999C203.918 30.6575 203.43 30.2957 203.033 29.8396C202.636 29.3835 202.34 28.8441 202.166 28.2587C201.992 27.6733 201.944 27.056 202.026 26.4497C201.947 25.8415 201.995 25.2229 202.169 24.6357C202.342 24.0486 202.636 23.5066 203.031 23.0465C203.426 22.5865 203.912 22.219 204.457 21.969C205.002 21.719 205.593 21.5923 206.19 21.5976C208.703 21.5976 210.219 23.3631 210.219 26.2794V26.919H203.841V27.0217C203.814 27.3625 203.855 27.7056 203.964 28.0289C204.072 28.3522 204.245 28.6486 204.472 28.8991C204.698 29.1496 204.973 29.3487 205.279 29.4835C205.584 29.6184 205.914 29.6861 206.247 29.6823C206.673 29.735 207.105 29.656 207.487 29.4555C207.87 29.255 208.186 28.9421 208.395 28.5564L210.111 28.5565ZM203.841 25.5634H208.403C208.425 25.2517 208.384 24.9387 208.282 24.6443C208.18 24.3499 208.019 24.0808 207.81 23.8542C207.6 23.6277 207.347 23.4486 207.066 23.3286C206.786 23.2087 206.484 23.1504 206.18 23.1575C205.872 23.1536 205.566 23.2131 205.28 23.3326C204.995 23.4521 204.735 23.6292 204.517 23.8534C204.299 24.0776 204.127 24.3444 204.011 24.6381C203.895 24.9318 203.837 25.2464 203.841 25.5634Z" fill="white"/>
</g>
<defs>
<clipPath id="clip0_404_17424">
<rect width="240" height="82.5" fill="white" transform="translate(0 0.75)"/>
</clipPath>
</defs>
</svg>
