<?xml version="1.0" encoding="UTF-8"?>
<svg id="Layer_2" data-name="Layer 2" xmlns="http://www.w3.org/2000/svg" xmlns:xlink="http://www.w3.org/1999/xlink" viewBox="0 0 240 84.18">
  <defs>
    <style>
      .cls-1 {
        fill: none;
      }

      .cls-1, .cls-2, .cls-3, .cls-4 {
        stroke-width: 0px;
      }

      .cls-2 {
        fill: #010101;
      }

      .cls-3 {
        fill: #a7a6a6;
      }

      .cls-5 {
        clip-path: url(#clippath);
      }

      .cls-4 {
        fill: #fff;
      }
    </style>
    <clipPath id="clippath">
      <rect class="cls-1" width="240" height="84.18"/>
    </clipPath>
  </defs>
  <g id="Layer_1-2" data-name="Layer 1">
    <g class="cls-5">
      <g>
        <path class="cls-3" d="M220.89,0H19.12C18.39,0,17.66,0,16.93,0c-.61,0-1.22.02-1.84.03-1.35.02-2.69.14-4.02.37-1.33.24-2.61.68-3.81,1.32-1.2.64-2.29,1.48-3.25,2.48-.96,1-1.76,2.15-2.36,3.41-.61,1.26-1.03,2.61-1.25,4.01C.17,13.01.05,14.42.03,15.83c-.02.65-.02,1.29-.03,1.94v48.64c0,.65.01,1.29.03,1.94.02,1.41.14,2.82.36,4.21.22,1.4.64,2.75,1.25,4.01.61,1.26,1.41,2.41,2.36,3.4.95,1,2.04,1.84,3.25,2.48,1.2.64,2.49,1.09,3.81,1.33,1.33.23,2.67.35,4.02.37.62.01,1.23.02,1.84.02.73,0,1.46,0,2.2,0h201.77c.72,0,1.45,0,2.17,0,.61,0,1.24,0,1.85-.02,1.34-.02,2.68-.14,4.01-.37,1.33-.24,2.62-.69,3.83-1.33,1.2-.64,2.3-1.48,3.24-2.48.96-.99,1.75-2.14,2.37-3.4.6-1.26,1.02-2.61,1.24-4.01.22-1.39.35-2.8.37-4.21,0-.65,0-1.29,0-1.94.02-.76.02-1.52.02-2.3V20.07c0-.77,0-1.54-.02-2.3,0-.65,0-1.29,0-1.94-.03-1.41-.15-2.82-.37-4.21-.22-1.39-.64-2.74-1.24-4.01-1.24-2.53-3.2-4.59-5.61-5.89-1.21-.64-2.5-1.08-3.83-1.32-1.33-.23-2.67-.36-4.01-.37-.61-.01-1.24-.02-1.85-.03-.72,0-1.45,0-2.17,0Z"/>
        <path class="cls-2" d="M16.94,82.34c-.61,0-1.21,0-1.81-.02-1.26-.02-2.51-.13-3.75-.34-1.16-.21-2.28-.6-3.32-1.15-1.04-.55-1.98-1.27-2.8-2.14-.83-.86-1.52-1.85-2.05-2.94-.53-1.1-.9-2.27-1.09-3.49-.21-1.3-.32-2.62-.33-3.95-.01-.44-.03-1.92-.03-1.92V17.77s.02-1.46.03-1.88c.02-1.32.13-2.64.33-3.94.19-1.22.56-2.4,1.09-3.5.52-1.09,1.21-2.08,2.04-2.94.82-.87,1.77-1.59,2.81-2.15,1.04-.55,2.16-.94,3.32-1.14,1.24-.21,2.5-.33,3.76-.35l1.81-.03h206.11l1.83.03c1.25.02,2.5.13,3.73.34,1.17.21,2.3.6,3.35,1.15,2.08,1.13,3.77,2.91,4.84,5.09.52,1.09.89,2.26,1.07,3.47.21,1.31.32,2.64.35,3.97,0,.6,0,1.24,0,1.87.02.79.02,1.54.02,2.3v44.04c0,.76,0,1.51-.02,2.26,0,.68,0,1.31,0,1.96-.02,1.31-.14,2.61-.34,3.9-.19,1.22-.55,2.41-1.08,3.51-.53,1.08-1.22,2.06-2.04,2.92-.82.87-1.77,1.6-2.81,2.15-1.05.56-2.18.95-3.35,1.16-1.24.21-2.49.33-3.75.34-.59.01-1.2.02-1.8.02h-2.17s-203.95,0-203.95,0Z"/>
        <path class="cls-4" d="M49.68,42.72c.02-1.76.47-3.48,1.29-5.01.83-1.53,2.01-2.81,3.43-3.73-.91-1.36-2.1-2.48-3.49-3.26-1.39-.79-2.94-1.23-4.51-1.28-3.37-.37-6.63,2.11-8.35,2.11s-4.39-2.08-7.24-2.02c-1.84.06-3.63.62-5.21,1.63-1.57,1.01-2.87,2.42-3.76,4.11-3.88,7.05-.99,17.4,2.73,23.1,1.86,2.79,4.03,5.9,6.87,5.79,2.78-.12,3.82-1.86,7.18-1.86s4.3,1.86,7.2,1.79c2.99-.05,4.87-2.8,6.66-5.62,1.34-1.99,2.36-4.18,3.05-6.51-1.73-.77-3.21-2.06-4.26-3.7-1.04-1.65-1.6-3.58-1.6-5.55Z"/>
        <path class="cls-4" d="M44.2,25.7c1.63-2.05,2.43-4.69,2.24-7.35-2.49.27-4.78,1.52-6.43,3.49-.81.96-1.42,2.08-1.82,3.3s-.56,2.5-.48,3.78c1.24.01,2.47-.27,3.6-.83,1.12-.56,2.11-1.38,2.89-2.39Z"/>
        <path class="cls-4" d="M84.84,57.12h-9.49l-2.28,7.06h-4.02l8.99-26.13h4.18l8.99,26.13h-4.09l-2.28-7.06ZM76.33,53.86h7.53l-3.71-11.46h-.1l-3.71,11.46Z"/>
        <path class="cls-4" d="M110.63,54.65c0,5.92-3.02,9.73-7.58,9.73-1.15.06-2.3-.22-3.31-.81-1.01-.59-1.84-1.47-2.4-2.53h-.09v9.44h-3.73v-25.36h3.61v3.17h.07c.58-1.06,1.43-1.93,2.45-2.52,1.02-.59,2.17-.89,3.33-.85,4.61,0,7.65,3.82,7.65,9.73ZM106.8,54.65c0-3.86-1.9-6.39-4.8-6.39s-4.76,2.59-4.76,6.39,1.92,6.41,4.76,6.41,4.8-2.52,4.8-6.41Z"/>
        <path class="cls-4" d="M130.62,54.65c0,5.92-3.02,9.73-7.58,9.73-1.15.06-2.3-.22-3.31-.81-1.01-.59-1.84-1.47-2.4-2.53h-.09v9.44h-3.73v-25.36h3.61v3.17h.07c.58-1.06,1.43-1.93,2.45-2.52,1.02-.59,2.17-.89,3.33-.85,4.61,0,7.65,3.82,7.65,9.73ZM126.78,54.65c0-3.86-1.9-6.39-4.8-6.39s-4.76,2.59-4.76,6.39,1.92,6.41,4.76,6.41,4.8-2.52,4.8-6.41Z"/>
        <path class="cls-4" d="M143.82,56.9c.28,2.59,2.68,4.29,5.95,4.29s5.4-1.7,5.4-4.04c0-2.03-1.36-3.24-4.59-4.08l-3.23-.82c-4.57-1.16-6.7-3.4-6.7-7.05,0-4.51,3.74-7.61,9.06-7.61s8.87,3.1,8.99,7.61h-3.76c-.23-2.61-2.28-4.18-5.28-4.18s-5.06,1.59-5.06,3.91c0,1.85,1.31,2.93,4.52,3.77l2.74.71c5.11,1.27,7.23,3.42,7.23,7.24,0,4.89-3.71,7.95-9.61,7.95-5.52,0-9.25-2.99-9.49-7.72h3.82Z"/>
        <path class="cls-4" d="M167.16,40.62v4.51h3.45v3.1h-3.45v10.5c0,1.63.69,2.39,2.21,2.39.41,0,.82-.04,1.23-.09v3.08c-.68.13-1.38.19-2.07.18-3.68,0-5.11-1.45-5.11-5.14v-10.92h-2.64v-3.1h2.64v-4.51h3.75Z"/>
        <path class="cls-4" d="M172.61,54.65c0-5.99,3.36-9.76,8.61-9.76s8.61,3.77,8.61,9.76-3.33,9.76-8.61,9.76-8.61-3.75-8.61-9.76ZM186.04,54.65c0-4.11-1.8-6.54-4.82-6.54s-4.81,2.45-4.81,6.54,1.79,6.54,4.81,6.54,4.82-2.41,4.82-6.54Z"/>
        <path class="cls-4" d="M192.91,45.13h3.55v3.24h.09c.24-1.01.81-1.91,1.6-2.53.79-.63,1.77-.95,2.77-.91.43,0,.86.05,1.28.15v3.66c-.54-.17-1.11-.25-1.68-.24-.54-.02-1.08.08-1.58.29-.5.22-.95.54-1.32.96-.37.42-.65.91-.82,1.45-.17.54-.22,1.11-.16,1.68v11.3h-3.73v-19.05Z"/>
        <path class="cls-4" d="M219.38,58.58c-.5,3.46-3.71,5.83-7.82,5.83-5.28,0-8.56-3.71-8.56-9.67s3.3-9.85,8.4-9.85,8.18,3.62,8.18,9.4v1.34h-12.82v.24c-.06.7.02,1.41.24,2.07.22.66.58,1.27,1.04,1.78.46.51,1.02.91,1.64,1.18.62.27,1.29.39,1.96.36.88.09,1.76-.13,2.52-.61.76-.48,1.34-1.21,1.67-2.07h3.54ZM206.78,52.9h9.08c.03-.63-.06-1.26-.27-1.85-.21-.59-.53-1.13-.95-1.59-.42-.45-.92-.81-1.48-1.05-.56-.24-1.15-.36-1.76-.34-.61,0-1.21.12-1.77.36-.56.24-1.07.6-1.5,1.05-.43.45-.77.98-1,1.57-.23.59-.35,1.22-.35,1.86Z"/>
        <path class="cls-4" d="M75.86,18.37c.78-.06,1.57.06,2.3.36.73.3,1.39.76,1.93,1.36.54.6.94,1.31,1.19,2.09.24.78.32,1.61.22,2.43,0,4.01-2.07,6.32-5.63,6.32h-4.32v-12.56h4.32ZM73.4,29.16h2.26c.56.04,1.12-.06,1.64-.28.52-.22.98-.56,1.36-.99.38-.43.66-.95.82-1.51s.21-1.15.13-1.73c.08-.58.03-1.17-.14-1.72s-.45-1.07-.83-1.5c-.38-.43-.84-.77-1.36-.98-.52-.22-1.07-.32-1.63-.28h-2.26v9.01Z"/>
        <path class="cls-4" d="M83.6,26.19c-.06-.62.01-1.25.2-1.84.19-.59.49-1.14.89-1.6.4-.46.89-.83,1.43-1.09.55-.25,1.13-.38,1.73-.38s1.19.13,1.73.38c.55.25,1.03.62,1.44,1.09.4.46.71,1.01.89,1.6.19.59.26,1.22.2,1.84.06.62,0,1.25-.2,1.85-.19.59-.49,1.14-.89,1.61-.4.46-.89.83-1.44,1.09s-1.14.38-1.73.38-1.19-.13-1.73-.38c-.55-.25-1.03-.62-1.44-1.09-.4-.46-.71-1.01-.89-1.61-.19-.59-.25-1.22-.2-1.85ZM90.28,26.19c0-2.05-.88-3.26-2.42-3.26s-2.42,1.2-2.42,3.26.87,3.26,2.42,3.26,2.42-1.2,2.42-3.26Z"/>
        <path class="cls-4" d="M103.44,30.93h-1.85l-1.87-6.98h-.14l-1.86,6.98h-1.83l-2.49-9.48h1.81l1.62,7.23h.13l1.86-7.23h1.71l1.86,7.23h.14l1.61-7.23h1.78l-2.48,9.48Z"/>
        <path class="cls-4" d="M108.01,21.45h1.72v1.51h.13c.23-.54.61-.99,1.09-1.3.48-.3,1.04-.44,1.61-.39.44-.03.88.03,1.29.2.41.17.78.43,1.08.77.3.34.52.74.65,1.19.13.44.17.91.1,1.37v6.13h-1.78v-5.66c0-1.52-.63-2.28-1.95-2.28-.3-.01-.6.04-.87.16-.28.12-.53.3-.73.52-.21.23-.36.5-.46.8-.1.3-.13.61-.1.92v5.54h-1.78v-9.48Z"/>
        <path class="cls-4" d="M118.52,17.76h1.78v13.18h-1.78v-13.18Z"/>
        <path class="cls-4" d="M122.78,26.19c-.06-.62.01-1.25.2-1.84.19-.59.49-1.14.89-1.6.4-.46.89-.83,1.43-1.09.54-.25,1.14-.38,1.73-.38s1.19.13,1.73.38c.54.25,1.03.62,1.43,1.09.4.46.71,1.01.89,1.6s.26,1.22.2,1.84c.06.62,0,1.25-.2,1.85-.19.59-.49,1.14-.89,1.61-.4.46-.89.83-1.44,1.09-.55.25-1.14.38-1.73.38s-1.19-.13-1.73-.38-1.03-.62-1.44-1.09-.71-1.01-.89-1.61c-.19-.59-.25-1.22-.2-1.85ZM129.46,26.19c0-2.05-.88-3.26-2.42-3.26s-2.42,1.2-2.42,3.26.87,3.26,2.42,3.26c1.54,0,2.42-1.2,2.42-3.26Z"/>
        <path class="cls-4" d="M133.18,28.25c0-1.71,1.21-2.69,3.36-2.83l2.45-.15v-.82c0-1-.63-1.57-1.85-1.57-.99,0-1.68.38-1.88,1.05h-1.73c.18-1.63,1.64-2.67,3.69-2.67,2.26,0,3.54,1.18,3.54,3.18v6.47h-1.72v-1.33h-.14c-.29.48-.69.87-1.16,1.13-.48.26-1.01.39-1.55.36-.38.04-.76,0-1.12-.12-.36-.12-.7-.33-.98-.59-.28-.27-.51-.59-.67-.96s-.24-.76-.24-1.16ZM138.98,27.44v-.79l-2.21.15c-1.24.09-1.81.53-1.81,1.37s.71,1.35,1.68,1.35c.28.03.57,0,.84-.09.27-.09.53-.23.74-.43.22-.19.4-.43.53-.7.13-.27.21-.56.22-.86Z"/>
        <path class="cls-4" d="M143.1,26.19c0-2.99,1.47-4.89,3.75-4.89.56-.03,1.12.11,1.62.41.49.29.89.73,1.15,1.25h.13v-5.2h1.78v13.18h-1.71v-1.5h-.14c-.28.52-.7.95-1.2,1.24-.5.29-1.07.43-1.64.41-2.3,0-3.75-1.9-3.75-4.9ZM144.94,26.19c0,2.01.9,3.22,2.41,3.22s2.43-1.23,2.43-3.21-.94-3.22-2.43-3.22-2.41,1.22-2.41,3.21Z"/>
        <path class="cls-4" d="M158.9,26.19c-.06-.62.01-1.25.2-1.84.19-.59.49-1.14.89-1.6.4-.46.89-.83,1.43-1.09.54-.25,1.13-.38,1.73-.38s1.19.13,1.73.38c.54.25,1.03.62,1.43,1.09.4.46.71,1.01.89,1.6.19.59.26,1.22.2,1.84.06.62,0,1.25-.2,1.85-.19.59-.49,1.14-.89,1.61-.4.46-.89.83-1.44,1.09-.55.25-1.14.38-1.73.38s-1.19-.13-1.73-.38-1.04-.62-1.44-1.09-.71-1.01-.89-1.61c-.19-.59-.26-1.22-.2-1.85ZM165.59,26.19c0-2.05-.88-3.26-2.42-3.26s-2.42,1.2-2.42,3.26.87,3.26,2.42,3.26,2.42-1.2,2.42-3.26Z"/>
        <path class="cls-4" d="M169.81,21.46h1.72v1.51h.13c.23-.54.61-.99,1.09-1.3.48-.3,1.04-.44,1.6-.39.44-.03.88.03,1.29.2.41.17.78.43,1.08.77.3.34.52.74.65,1.19.13.44.16.91.1,1.37v6.13h-1.78v-5.66c0-1.52-.63-2.28-1.95-2.28-.3-.01-.6.04-.87.16-.28.12-.53.3-.73.52-.21.23-.36.5-.46.8-.09.3-.13.61-.1.92v5.54h-1.78v-9.48Z"/>
        <path class="cls-4" d="M187.55,19.1v2.4h1.96v1.58h-1.96v4.87c0,.99.39,1.43,1.28,1.43.23,0,.45-.02.68-.04v1.56c-.32.06-.64.09-.97.1-1.98,0-2.77-.73-2.77-2.56v-5.35h-1.43v-1.58h1.43v-2.4h1.78Z"/>
        <path class="cls-4" d="M191.95,17.76h1.77v5.22h.14c.24-.55.63-1,1.12-1.31.49-.3,1.06-.44,1.63-.39.44-.02.87.05,1.28.22.41.17.77.44,1.07.77s.52.74.65,1.18c.13.44.17.9.11,1.36v6.12h-1.78v-5.66c0-1.51-.67-2.28-1.93-2.28-.31-.03-.61.02-.9.13-.29.11-.55.29-.77.52-.22.23-.38.5-.49.81-.1.3-.14.63-.12.95v5.53h-1.78v-13.18Z"/>
        <path class="cls-4" d="M210.11,28.37c-.24.87-.77,1.62-1.48,2.12-.72.5-1.58.72-2.43.63-.6.02-1.19-.1-1.73-.35-.55-.25-1.04-.62-1.43-1.08-.4-.47-.69-1.02-.87-1.61-.17-.6-.22-1.23-.14-1.85-.08-.62-.03-1.25.14-1.85.17-.6.47-1.15.86-1.62.39-.47.88-.84,1.43-1.1s1.14-.38,1.73-.38c2.51,0,4.03,1.8,4.03,4.78v.65h-6.38v.1c-.03.35.01.7.12,1.03.11.33.28.63.51.89.23.26.5.46.81.6.3.14.63.21.97.2.43.05.86-.03,1.24-.23.38-.2.7-.52.91-.92h1.72ZM203.84,25.32h4.56c.02-.32-.02-.64-.12-.94-.1-.3-.26-.57-.47-.81-.21-.23-.46-.41-.74-.54-.28-.12-.58-.18-.89-.17-.31,0-.61.06-.9.18-.29.12-.54.3-.76.53-.22.23-.39.5-.51.8-.12.3-.17.62-.17.94Z"/>
      </g>
    </g>
  </g>
</svg>