<?xml version="1.0" encoding="utf-8"?>
<!-- Generator: Adobe Illustrator 28.3.0, SVG Export Plug-In . SVG Version: 6.00 Build 0)  -->
<svg version="1.1" id="Layer_1" xmlns="http://www.w3.org/2000/svg" xmlns:xlink="http://www.w3.org/1999/xlink" x="0px" y="0px"
	 viewBox="0 0 239.99 84" style="enable-background:new 0 0 239.99 84;" xml:space="preserve">
<style type="text/css">
	.st0{fill:#121210;}
	.st1{fill:#A2A2A1;}
	.st2{fill:#FFFFFF;}
	.st3{fill:#EA3432;}
	.st4{fill:#F4B61A;}
	.st5{fill:#5B78BB;}
	.st6{fill:#3CAD49;}
	.st7{fill:#FFFFFF;stroke:#FFFFFF;stroke-width:0.2667;stroke-miterlimit:10;}
</style>
<path class="st0" d="M231.1,84H8.89C4,84,0,79.28,0,73.5v-63C0,4.72,4,0,8.89,0H231.1c4.89,0,8.89,4.72,8.89,10.5v63
	C239.99,79.28,235.99,84,231.1,84z"/>
<path class="st1" d="M231.1,0H8.89C4,0,0,4.72,0,10.5v63C0,79.28,4,84,8.89,84H231.1c4.89,0,8.89-4.72,8.89-10.5v-63
	C239.99,4.72,235.99,0,231.1,0z M231.1,1.68c4.12,0,7.47,3.96,7.47,8.82v63c0,4.86-3.35,8.82-7.47,8.82H8.89
	c-4.12,0-7.47-3.96-7.47-8.82v-63c0-4.86,3.35-8.82,7.47-8.82H231.1z"/>
<path class="st2" d="M190.1,60h3.32V37.77h-3.32V60z M219.98,45.78l-3.8,9.64h-0.11l-3.95-9.64h-3.57l5.92,13.47l-3.38,7.49h3.46
	l9.12-20.96L219.98,45.78z M201.17,57.47c-1.08,0-2.6-0.54-2.6-1.89c0-1.72,1.89-2.37,3.52-2.37c1.46,0,2.15,0.31,3.03,0.74
	C204.86,56.01,203.08,57.47,201.17,57.47z M201.57,45.29c-2.4,0-4.89,1.06-5.92,3.4l2.94,1.23c0.63-1.23,1.8-1.63,3.03-1.63
	c1.71,0,3.46,1.03,3.49,2.86v0.23c-0.6-0.34-1.89-0.86-3.46-0.86c-3.18,0-6.4,1.74-6.4,5c0,2.97,2.6,4.89,5.52,4.89
	c2.23,0,3.46-1,4.23-2.17h0.12v1.72h3.2v-8.52C208.32,47.49,205.37,45.29,201.57,45.29z M181.07,48.48h-4.72v-7.62h4.72
	c2.48,0,3.89,2.05,3.89,3.81C184.96,46.4,183.55,48.48,181.07,48.48z M180.98,37.77h-7.95V60h3.32v-8.42h4.63
	c3.68,0,7.29-2.66,7.29-6.9C188.27,40.44,184.66,37.77,180.98,37.77z M137.64,57.48c-2.29,0-4.21-1.92-4.21-4.55
	c0-2.66,1.92-4.61,4.21-4.61c2.26,0,4.04,1.95,4.04,4.61C141.68,55.56,139.9,57.48,137.64,57.48z M141.45,47.02h-0.11
	c-0.75-0.89-2.18-1.69-3.98-1.69c-3.78,0-7.25,3.32-7.25,7.59c0,4.24,3.46,7.53,7.25,7.53c1.8,0,3.24-0.8,3.98-1.72h0.11v1.09
	c0,2.89-1.55,4.44-4.04,4.44c-2.03,0-3.29-1.46-3.81-2.69l-2.89,1.2c0.83,2,3.03,4.47,6.7,4.47c3.9,0,7.19-2.29,7.19-7.88V45.79
	h-3.15L141.45,47.02z M146.89,60h3.32V37.77h-3.32V60z M155.11,52.66c-0.09-2.92,2.26-4.41,3.95-4.41c1.32,0,2.43,0.66,2.81,1.6
	L155.11,52.66z M165.42,50.14c-0.63-1.69-2.55-4.81-6.47-4.81c-3.9,0-7.13,3.06-7.13,7.56c0,4.24,3.21,7.56,7.5,7.56
	c3.46,0,5.47-2.12,6.3-3.35l-2.58-1.72c-0.86,1.26-2.03,2.09-3.72,2.09c-1.69,0-2.89-0.77-3.66-2.29L165.76,51L165.42,50.14z
	 M84.88,47.65v3.21h7.68c-0.23,1.8-0.83,3.12-1.75,4.04c-1.12,1.12-2.86,2.35-5.93,2.35c-4.73,0-8.42-3.81-8.42-8.53
	s3.69-8.54,8.42-8.54c2.55,0,4.41,1,5.79,2.29l2.26-2.26c-1.92-1.83-4.47-3.24-8.05-3.24c-6.47,0-11.92,5.27-11.92,11.74
	c0,6.47,5.44,11.74,11.92,11.74c3.49,0,6.13-1.15,8.19-3.29c2.12-2.12,2.78-5.1,2.78-7.5c0-0.74-0.06-1.43-0.17-2H84.88z
	 M104.57,57.48c-2.29,0-4.27-1.89-4.27-4.58c0-2.72,1.98-4.58,4.27-4.58c2.29,0,4.27,1.86,4.27,4.58
	C108.84,55.59,106.86,57.48,104.57,57.48z M104.57,45.33c-4.18,0-7.59,3.18-7.59,7.56c0,4.35,3.41,7.56,7.59,7.56
	c4.18,0,7.59-3.21,7.59-7.56C112.16,48.51,108.75,45.33,104.57,45.33z M121.13,57.48c-2.29,0-4.27-1.89-4.27-4.58
	c0-2.72,1.98-4.58,4.27-4.58c2.29,0,4.27,1.86,4.27,4.58C125.39,55.59,123.42,57.48,121.13,57.48z M121.13,45.33
	c-4.18,0-7.59,3.18-7.59,7.56c0,4.35,3.41,7.56,7.59,7.56c4.18,0,7.59-3.21,7.59-7.56C128.72,48.51,125.31,45.33,121.13,45.33z"/>
<path class="st3" d="M36.82,41.2L17.9,61.28c0,0,0,0.01,0,0.01c0.58,2.18,2.57,3.79,4.94,3.79c0.95,0,1.83-0.26,2.59-0.7l0.06-0.04
	l21.3-12.29L36.82,41.2z"/>
<path class="st4" d="M55.97,37.78l-0.02-0.01l-9.2-5.33l-10.36,9.22l10.4,10.4l9.15-5.28c1.6-0.87,2.69-2.56,2.69-4.51
	C58.63,40.33,57.56,38.64,55.97,37.78z"/>
<path class="st5" d="M17.9,23.16c-0.11,0.42-0.17,0.86-0.17,1.32v35.5c0,0.46,0.06,0.9,0.17,1.31l19.58-19.57L17.9,23.16z"/>
<path class="st6" d="M36.96,42.22l9.8-9.79L25.48,20.09c-0.77-0.46-1.68-0.73-2.64-0.73c-2.36,0-4.36,1.61-4.94,3.79c0,0,0,0,0,0.01
	L36.96,42.22z"/>
<path class="st7" d="M84.25,24.05h-5.19v1.28h3.89c-0.11,1.05-0.52,1.87-1.22,2.47c-0.7,0.6-1.6,0.9-2.66,0.9
	c-1.16,0-2.15-0.41-2.96-1.21c-0.79-0.82-1.19-1.84-1.19-3.06c0-1.22,0.4-2.24,1.19-3.06c0.81-0.81,1.79-1.21,2.96-1.21
	c0.6,0,1.17,0.1,1.69,0.33c0.52,0.22,0.94,0.54,1.27,0.94l0.99-0.99c-0.45-0.51-1.01-0.9-1.72-1.18c-0.7-0.28-1.44-0.42-2.23-0.42
	c-1.55,0-2.87,0.54-3.94,1.61c-1.07,1.08-1.61,2.41-1.61,3.97c0,1.57,0.54,2.9,1.61,3.98c1.07,1.07,2.39,1.61,3.94,1.61
	c1.63,0,2.93-0.52,3.93-1.58c0.88-0.88,1.33-2.08,1.33-3.57C84.33,24.61,84.3,24.34,84.25,24.05z M86.26,19.08v10.7h6.25v-1.31
	h-4.87v-3.39h4.39v-1.28h-4.39v-3.39h4.87v-1.32H86.26z M101.27,20.39v-1.32h-7.35v1.32h2.99v9.38h1.38v-9.38H101.27z M107.93,19.08
	h-1.38v10.7h1.38V19.08z M117,20.39v-1.32h-7.35v1.32h2.99v9.38h1.38v-9.38H117z M130.88,20.47c-1.06-1.09-2.36-1.63-3.91-1.63
	c-1.56,0-2.86,0.54-3.92,1.61c-1.06,1.06-1.58,2.39-1.58,3.97c0,1.58,0.52,2.91,1.58,3.98c1.06,1.07,2.36,1.61,3.92,1.61
	c1.54,0,2.85-0.54,3.91-1.61c1.06-1.06,1.58-2.39,1.58-3.98C132.46,22.86,131.94,21.53,130.88,20.47z M124.03,21.36
	c0.79-0.81,1.76-1.21,2.93-1.21c1.16,0,2.14,0.4,2.91,1.21c0.79,0.79,1.18,1.82,1.18,3.06c0,1.24-0.39,2.27-1.18,3.06
	c-0.78,0.81-1.75,1.21-2.91,1.21c-1.17,0-2.14-0.41-2.93-1.21c-0.78-0.81-1.16-1.82-1.16-3.06
	C122.87,23.19,123.26,22.17,124.03,21.36z M135.73,23.11l-0.06-2.06h0.06l5.44,8.73h1.44v-10.7h-1.38v6.26l0.06,2.06h-0.06
	l-5.2-8.32h-1.68v10.7h1.38V23.11z"/>
</svg>
