<svg width="240" height="72" viewBox="0 0 240 72" fill="none" xmlns="http://www.w3.org/2000/svg">
<g clip-path="url(#clip0_404_17459)">
<path d="M231.107 71.5551H8.8933C4.00451 71.5551 0.00463867 67.5553 0.00463867 62.6665V9.33447C0.00463867 4.44567 4.00451 0.445801 8.8933 0.445801H231.107C235.995 0.445801 239.995 4.44567 239.995 9.33447V62.6665C239.995 67.5553 235.995 71.5551 231.107 71.5551Z" fill="#100F0D"/>
<path d="M231.107 0.445801H8.8933C4.00451 0.445801 0.00463867 4.44567 0.00463867 9.33447V62.6665C0.00463867 67.5553 4.00451 71.5551 8.8933 71.5551H231.107C235.995 71.5551 239.995 67.5553 239.995 62.6665V9.33447C239.995 4.44567 235.995 0.445801 231.107 0.445801ZM231.107 1.86727C235.224 1.86727 238.573 5.21727 238.573 9.33447V62.6665C238.573 66.7837 235.224 70.1337 231.107 70.1337H8.8933C4.77611 70.1337 1.42757 66.7837 1.42757 62.6665V9.33447C1.42757 5.21727 4.77611 1.86727 8.8933 1.86727H231.107Z" fill="#A2A2A1"/>
<path d="M190.107 53.7778H193.424V31.5525H190.107V53.7778ZM219.985 39.5591L216.183 49.1943H216.069L212.123 39.5591H208.549L214.469 53.0258L211.093 60.5171H214.553L223.674 39.5598L219.985 39.5591ZM201.172 51.2533C200.088 51.2533 198.571 50.7095 198.571 49.3658C198.571 47.6505 200.459 46.9929 202.088 46.9929C203.545 46.9929 204.233 47.3068 205.119 47.736C204.861 49.7949 203.088 51.2533 201.172 51.2533ZM201.574 39.073C199.172 39.073 196.685 40.1313 195.656 42.4758L198.6 43.7049C199.229 42.4758 200.4 42.0759 201.631 42.0759C203.346 42.0759 205.09 43.1043 205.119 44.9348V45.1632C204.518 44.8201 203.231 44.3057 201.659 44.3057C198.484 44.3057 195.254 46.0492 195.254 49.3088C195.254 52.2824 197.857 54.1983 200.772 54.1983C203.001 54.1983 204.233 53.1976 205.003 52.0249H205.119V53.7414H208.322V45.2201C208.322 41.2743 205.375 39.073 201.574 39.073ZM181.072 42.2646H176.354V34.6469H181.072C183.552 34.6469 184.96 36.6997 184.96 38.4557C184.96 40.1779 183.552 42.2646 181.072 42.2646ZM180.987 31.553H173.039V53.7783H176.354V45.3585H180.987C184.664 45.3585 188.278 42.6974 188.278 38.4565C188.278 34.2163 184.664 31.553 180.987 31.553ZM137.644 51.257C135.353 51.257 133.435 49.3375 133.435 46.7037C133.435 44.0391 135.353 42.0926 137.644 42.0926C139.907 42.0926 141.683 44.0393 141.683 46.7037C141.683 49.3375 139.907 51.257 137.644 51.257ZM141.453 40.8033H141.339C140.594 39.9156 139.162 39.1137 137.358 39.1137C133.577 39.1137 130.112 42.4365 130.112 46.7037C130.112 50.9418 133.577 54.2354 137.358 54.2354C139.162 54.2354 140.594 53.4333 141.339 52.5174H141.453V53.6048C141.453 56.4986 139.907 58.0443 137.415 58.0443C135.383 58.0443 134.122 56.5839 133.606 55.3526L130.714 56.5553C131.544 58.5593 133.749 61.0233 137.415 61.0233C141.311 61.0233 144.605 58.7316 144.605 53.1464V39.5717H141.454L141.453 40.8033ZM146.896 53.7771H150.217V31.5518H146.896V53.7771ZM155.115 46.4454C155.03 43.5239 157.379 42.035 159.068 42.035C160.386 42.035 161.502 42.694 161.875 43.6385L155.115 46.4454ZM165.425 43.9246C164.795 42.2358 162.877 39.1137 158.953 39.1137C155.057 39.1137 151.821 42.1781 151.821 46.6746C151.821 50.9134 155.03 54.2355 159.325 54.2355C162.79 54.2355 164.795 52.1169 165.626 50.8849L163.049 49.1662C162.189 50.4266 161.016 51.2571 159.325 51.2571C157.636 51.2571 156.432 50.4836 155.66 48.9657L165.769 44.7845L165.425 43.9246ZM84.8798 41.4337V44.6413H92.5551C92.326 46.4455 91.7246 47.7627 90.8079 48.6794C89.6906 49.796 87.9435 51.0279 84.8797 51.0279C80.1539 51.0279 76.4597 47.219 76.4597 42.4934C76.4597 37.7678 80.1539 33.9583 84.8797 33.9583C87.4287 33.9583 89.2899 34.961 90.6647 36.2498L92.9279 33.9867C91.0085 32.1541 88.4599 30.7507 84.8797 30.7507C78.4061 30.7507 72.9646 36.0206 72.9646 42.4934C72.9646 48.9655 78.4061 54.2355 84.8797 54.2355C88.3733 54.2355 91.0086 53.0898 93.0703 50.9419C95.1898 48.8225 95.8487 45.8441 95.8487 43.4379C95.8487 42.6941 95.791 42.0067 95.6765 41.4337H84.8798ZM104.576 51.257C102.284 51.257 100.308 49.3667 100.308 46.6746C100.308 43.9538 102.284 42.0927 104.576 42.0927C106.867 42.0927 108.843 43.9538 108.843 46.6746C108.843 49.3667 106.867 51.257 104.576 51.257ZM104.576 39.1137C100.393 39.1137 96.9855 42.2926 96.9855 46.6746C96.9855 51.0279 100.393 54.2355 104.576 54.2355C108.757 54.2355 112.165 51.0279 112.165 46.6746C112.165 42.2926 108.757 39.1137 104.576 39.1137ZM121.132 51.257C118.842 51.257 116.865 49.3667 116.865 46.6746C116.865 43.9538 118.842 42.0927 121.132 42.0927C123.424 42.0927 125.399 43.9538 125.399 46.6746C125.399 49.3667 123.424 51.257 121.132 51.257ZM121.132 39.1137C116.951 39.1137 113.543 42.2926 113.543 46.6746C113.543 51.0279 116.951 54.2355 121.132 54.2355C125.314 54.2355 128.722 51.0279 128.722 46.6746C128.722 42.2926 125.314 39.1137 121.132 39.1137Z" fill="white"/>
<path d="M36.8293 34.9766L17.904 55.0646C17.9047 55.0687 17.9061 55.0722 17.9068 55.0764C18.4872 57.2578 20.4796 58.8639 22.8441 58.8639C23.7894 58.8639 24.6768 58.6083 25.4379 58.1597L25.4983 58.1243L46.8023 45.831L36.8293 34.9766Z" fill="#EB3131"/>
<path d="M55.9774 31.5566L55.9592 31.5442L46.7616 26.2122L36.3994 35.433L46.7976 45.8299L55.9467 40.551C57.5507 39.685 58.6396 37.994 58.6396 36.044C58.6396 34.108 57.5655 32.4254 55.9774 31.5566Z" fill="#F6B60B"/>
<path d="M17.9014 16.938C17.7876 17.3575 17.7278 17.797 17.7278 18.2533V53.7507C17.7278 54.2062 17.7869 54.6471 17.9021 55.0652L37.4807 35.4905L17.9014 16.938Z" fill="#5778C5"/>
<path d="M36.9694 36.0019L46.7658 26.2084L25.4858 13.8705C24.7123 13.4073 23.8095 13.1399 22.8435 13.1399C20.479 13.1399 18.4839 14.749 17.9034 16.9328C17.9026 16.935 17.9026 16.9364 17.9026 16.9383L36.9694 36.0019Z" fill="#3BAD49"/>
<path d="M84.2573 17.834H79.0713V19.1174H82.9574C82.8518 20.1646 82.4352 20.9868 81.7324 21.584C81.0297 22.1814 80.1324 22.4813 79.0713 22.4813C77.9075 22.4813 76.9213 22.0758 76.1132 21.2703C75.3214 20.4481 74.9188 19.4313 74.9188 18.2064C74.9188 16.9816 75.3214 15.9648 76.1132 15.1427C76.9214 14.3372 77.9075 13.9344 79.0713 13.9344C79.6687 13.9344 80.2381 14.0371 80.7601 14.2622C81.2824 14.487 81.7018 14.801 82.0296 15.2038L83.0157 14.2177C82.5684 13.7093 82.0019 13.3205 81.2989 13.0371C80.5962 12.7538 79.8629 12.6178 79.0712 12.6178C77.5185 12.6178 76.202 13.1566 75.1269 14.2316C74.0519 15.3093 73.5131 16.6371 73.5131 18.2064C73.5131 19.7758 74.0519 21.1064 75.1269 22.1815C76.2019 23.2563 77.5185 23.7954 79.0712 23.7954C80.7017 23.7954 82.0017 23.2731 83.0017 22.2119C83.8822 21.3287 84.3322 20.1343 84.3322 18.6399C84.3322 18.3871 84.3018 18.1174 84.2573 17.834ZM86.2664 12.8564V23.5563H92.5133V22.2424H87.6413V18.8481H92.0357V17.5648H87.6413V14.1732H92.5133V12.8564L86.2664 12.8564ZM101.273 14.1732V12.8564H93.9204V14.1732H96.9093V23.5563H98.2843V14.1732H101.273ZM107.93 12.8564H106.555V23.5563H107.93V12.8564ZM117.005 14.1732V12.8564H109.653V14.1732H112.641V23.5563H114.016V14.1732H117.005ZM130.88 14.2482C129.819 13.1565 128.519 12.6177 126.966 12.6177C125.411 12.6177 124.111 13.1565 123.049 14.2315C121.988 15.2927 121.466 16.6231 121.466 18.2063C121.466 19.7895 121.988 21.1202 123.049 22.1814C124.111 23.2562 125.411 23.7953 126.966 23.7953C128.505 23.7953 129.819 23.2563 130.88 22.1814C131.941 21.1203 132.463 19.7897 132.463 18.2063C132.463 16.637 131.941 15.3091 130.88 14.2482ZM124.036 15.1426C124.827 14.3371 125.799 13.9343 126.966 13.9343C128.13 13.9343 129.102 14.3371 129.88 15.1426C130.671 15.9342 131.06 16.9674 131.06 18.2063C131.06 19.4481 130.671 20.4784 129.88 21.2702C129.102 22.0757 128.13 22.4812 126.966 22.4812C125.799 22.4812 124.827 22.0757 124.036 21.2702C123.26 20.4618 122.872 19.448 122.872 18.2063C122.872 16.9674 123.26 15.9508 124.036 15.1426ZM135.73 16.8926L135.671 14.8286H135.73L141.169 23.5562H142.605V12.8563H141.23V19.1172L141.288 21.1812H141.23L136.03 12.8563H134.355V23.5562H135.73V16.8926Z" fill="white" stroke="white" stroke-width="0.26666" stroke-miterlimit="10"/>
</g>
<defs>
<clipPath id="clip0_404_17459">
<rect width="240" height="71.1107" fill="white" transform="translate(0 0.44458)"/>
</clipPath>
</defs>
</svg>
