<svg width="48" height="48" viewBox="0 0 48 48" fill="none" xmlns="http://www.w3.org/2000/svg">
<path d="M16.455 20.637C16.4111 20.442 16.3287 20.2577 16.2126 20.095C16.0964 19.9322 15.949 19.7944 15.7788 19.6895C15.6086 19.5846 15.4192 19.5147 15.2217 19.4841C15.0241 19.4534 14.8225 19.4625 14.6285 19.5109C14.4345 19.5593 14.2522 19.646 14.0922 19.7658C13.9322 19.8857 13.7978 20.0363 13.6969 20.2089C13.5959 20.3814 13.5305 20.5724 13.5044 20.7706C13.4783 20.9688 13.4921 21.1702 13.545 21.363L18.045 39.363C18.126 39.6843 18.3112 39.9697 18.5715 40.1746C18.8318 40.3796 19.1526 40.4926 19.4839 40.4961C19.8152 40.4995 20.1384 40.3931 20.4029 40.1936C20.6674 39.994 20.8583 39.7125 20.946 39.393L24 28.206L27.054 39.396C27.1417 39.7155 27.3326 39.997 27.5971 40.1966C27.8616 40.3961 28.1848 40.5025 28.5161 40.4991C28.8474 40.4956 29.1682 40.3826 29.4285 40.1776C29.6888 39.9727 29.874 39.6873 29.955 39.366L34.455 21.366C34.541 20.9838 34.4741 20.583 34.2684 20.2495C34.0628 19.916 33.7348 19.6762 33.3547 19.5813C32.9745 19.4865 32.5724 19.5441 32.2342 19.742C31.896 19.9398 31.6486 20.2621 31.545 20.64L28.437 33.072L25.446 22.107C25.3587 21.7905 25.17 21.5114 24.9088 21.3125C24.6476 21.1136 24.3283 21.0059 24 21.0059C23.6717 21.0059 23.3524 21.1136 23.0912 21.3125C22.83 21.5114 22.6413 21.7905 22.554 22.107L19.563 33.072L16.455 20.64V20.637Z" fill="#2D659F"/>
<path d="M42 42V13.5L28.5 0H12C10.4087 0 8.88258 0.632141 7.75736 1.75736C6.63214 2.88258 6 4.4087 6 6V42C6 43.5913 6.63214 45.1174 7.75736 46.2426C8.88258 47.3679 10.4087 48 12 48H36C37.5913 48 39.1174 47.3679 40.2426 46.2426C41.3679 45.1174 42 43.5913 42 42ZM28.5 9C28.5 10.1935 28.9741 11.3381 29.818 12.182C30.6619 13.0259 31.8065 13.5 33 13.5H39V42C39 42.7957 38.6839 43.5587 38.1213 44.1213C37.5587 44.6839 36.7956 45 36 45H12C11.2044 45 10.4413 44.6839 9.87868 44.1213C9.31607 43.5587 9 42.7957 9 42V6C9 5.20435 9.31607 4.44129 9.87868 3.87868C10.4413 3.31607 11.2044 3 12 3H28.5V9Z" fill="#2D659F"/>
</svg>
