<svg width="48" height="48" viewBox="0 0 48 48" fill="none" xmlns="http://www.w3.org/2000/svg">
<path d="M42 42V13.5L28.5 0H12C10.4087 0 8.88258 0.632141 7.75736 1.75736C6.63214 2.88258 6 4.4087 6 6V42C6 43.5913 6.63214 45.1174 7.75736 46.2426C8.88258 47.3679 10.4087 48 12 48H36C37.5913 48 39.1174 47.3679 40.2426 46.2426C41.3679 45.1174 42 43.5913 42 42ZM28.5 9C28.5 10.1935 28.9741 11.3381 29.818 12.182C30.6619 13.0259 31.8065 13.5 33 13.5H39V42C39 42.7957 38.6839 43.5587 38.1213 44.1213C37.5587 44.6839 36.7956 45 36 45H12C11.2044 45 10.4413 44.6839 9.87868 44.1213C9.31607 43.5587 9 42.7957 9 42V6C9 5.20435 9.31607 4.44129 9.87868 3.87868C10.4413 3.31607 11.2044 3 12 3H28.5V9Z" fill="#B94646"/>
<path d="M13.809 42.261C13.2243 42.0272 12.7532 41.5754 12.495 41.001C11.91 39.837 12.105 38.673 12.735 37.695C13.329 36.774 14.313 35.991 15.426 35.334C16.8358 34.5344 18.3261 33.8859 19.872 33.399C21.0726 31.2408 22.1367 29.0094 23.058 26.718C22.5071 25.4663 22.0752 24.1656 21.768 22.833C21.51 21.633 21.411 20.445 21.63 19.425C21.855 18.363 22.452 17.409 23.58 16.956C24.156 16.725 24.78 16.596 25.386 16.725C25.6908 16.7899 25.9774 16.9219 26.2249 17.1112C26.4724 17.3006 26.6747 17.5428 26.817 17.82C27.081 18.312 27.177 18.888 27.198 19.434C27.219 19.998 27.162 20.622 27.057 21.276C26.805 22.806 26.247 24.678 25.497 26.658C26.3247 28.4281 27.3086 30.1208 28.437 31.716C29.7723 31.6106 31.1153 31.6609 32.439 31.866C33.531 32.064 34.641 32.451 35.319 33.261C35.679 33.693 35.898 34.221 35.919 34.815C35.94 35.391 35.778 35.961 35.505 36.504C35.2685 37.0072 34.9019 37.4381 34.443 37.752C33.9894 38.0479 33.4539 38.1928 32.913 38.166C31.92 38.124 30.951 37.578 30.114 36.915C29.0962 36.0735 28.1791 35.1172 27.381 34.065C25.3523 34.2953 23.3476 34.7028 21.39 35.283C20.4935 36.8729 19.4702 38.3878 18.33 39.813C17.454 40.863 16.503 41.781 15.549 42.174C15.0009 42.422 14.3791 42.4531 13.809 42.261ZM17.946 36.558C17.448 36.786 16.986 37.026 16.569 37.272C15.585 37.854 14.946 38.421 14.628 38.913C14.346 39.348 14.34 39.663 14.508 39.996C14.538 40.062 14.568 40.104 14.586 40.128C14.6218 40.1185 14.6569 40.1065 14.691 40.092C15.102 39.924 15.756 39.387 16.596 38.376C17.0737 37.7911 17.5242 37.1845 17.946 36.558ZM22.866 32.568C23.8678 32.3342 24.8786 32.1411 25.896 31.989C25.3498 31.1531 24.8393 30.2943 24.366 29.415C23.8955 30.4788 23.3953 31.5292 22.866 32.565V32.568ZM30.204 33.918C30.654 34.407 31.092 34.818 31.509 35.148C32.229 35.718 32.73 35.907 33.003 35.916C33.0761 35.9256 33.1502 35.9097 33.213 35.871C33.3378 35.7725 33.4349 35.6433 33.495 35.496C33.6017 35.3133 33.6624 35.1074 33.672 34.896C33.6703 34.8256 33.6425 34.7582 33.594 34.707C33.438 34.521 32.994 34.251 32.04 34.08C31.4332 33.9785 30.8192 33.9254 30.204 33.921V33.918ZM24.234 23.4C24.4865 22.5856 24.6869 21.7559 24.834 20.916C24.927 20.352 24.963 19.887 24.948 19.521C24.9488 19.3191 24.9164 19.1184 24.852 18.927C24.7019 18.9456 24.5554 18.986 24.417 19.047C24.156 19.152 23.943 19.365 23.829 19.896C23.709 20.472 23.739 21.303 23.967 22.362C24.039 22.695 24.129 23.043 24.237 23.4H24.234Z" fill="#B94646"/>
</svg>
