<svg width="48" height="48" viewBox="0 0 48 48" fill="none" xmlns="http://www.w3.org/2000/svg">
<path fill-rule="evenodd" clip-rule="evenodd" d="M42 13.5V42C42 43.5913 41.3679 45.1174 40.2426 46.2426C39.1174 47.3679 37.5913 48 36 48H30V45H36C36.7957 45 37.5587 44.6839 38.1213 44.1213C38.6839 43.5587 39 42.7957 39 42V13.5H33C31.8065 13.5 30.6619 13.0259 29.818 12.182C28.9741 11.3381 28.5 10.1935 28.5 9V3H12C11.2044 3 10.4413 3.31607 9.87868 3.87868C9.31607 4.44129 9 5.20435 9 6V33H6V6C6 4.4087 6.63214 2.88258 7.75736 1.75736C8.88258 0.632141 10.4087 0 12 0L28.5 0L42 13.5ZM5.784 47.547V37.536H9.192V35.55H0V37.536H3.402V47.547H5.784ZM19.851 35.55H17.169L14.7 39.867H14.595L12.099 35.55H9.303L12.987 41.499L9.267 47.547H11.853L14.412 43.302H14.517L17.067 47.547H19.788L16.029 41.571L19.851 35.55ZM25.641 37.536V47.547H23.259V37.536H19.857V35.55H29.049V37.536H25.638H25.641Z" fill="#5E5E5E"/>
</svg>
