<svg width="48" height="48" viewBox="0 0 48 48" fill="none" xmlns="http://www.w3.org/2000/svg">
<g clip-path="url(#clip0_284_1039)">
<path fill-rule="evenodd" clip-rule="evenodd" d="M42 13.5V42C42 43.5913 41.3679 45.1174 40.2426 46.2426C39.1174 47.3679 37.5913 48 36 48H33V45H36C36.7957 45 37.5587 44.6839 38.1213 44.1213C38.6839 43.5587 39 42.7957 39 42V13.5H33C31.8065 13.5 30.6619 13.0259 29.818 12.182C28.9741 11.3381 28.5 10.1935 28.5 9V3H12C11.2044 3 10.4413 3.31607 9.87868 3.87868C9.31607 4.44129 9 5.20435 9 6V33H6V6C6 4.4087 6.63214 2.88258 7.75736 1.75736C8.88258 0.632141 10.4087 0 12 0L28.5 0L42 13.5ZM19.416 45.87C19.2169 45.4475 19.1037 44.9896 19.083 44.523H21.378C21.4193 44.757 21.5083 44.98 21.6393 45.1781C21.7704 45.3763 21.9408 45.5454 22.14 45.675C22.35 45.822 22.602 45.936 22.89 46.017C23.175 46.101 23.496 46.14 23.847 46.14C24.339 46.14 24.753 46.071 25.086 45.93C25.3919 45.8156 25.6578 45.6144 25.851 45.351C26.0225 45.0937 26.1114 44.7902 26.106 44.481C26.1145 44.293 26.0771 44.1057 25.9972 43.9354C25.9172 43.765 25.797 43.6166 25.647 43.503C25.344 43.263 24.882 43.071 24.261 42.924L22.404 42.495C21.8325 42.3741 21.2858 42.157 20.787 41.853C20.3472 41.5826 19.9845 41.2034 19.734 40.752C19.4788 40.2681 19.3518 39.7269 19.365 39.18C19.365 38.448 19.554 37.809 19.935 37.263C20.316 36.72 20.844 36.297 21.516 35.997C22.191 35.697 22.968 35.55 23.847 35.55C24.762 35.55 25.539 35.7 26.187 36.006C26.835 36.312 27.336 36.723 27.687 37.236C28.047 37.746 28.245 38.313 28.287 38.934H26.037C25.9856 38.6493 25.8616 38.3827 25.677 38.16C25.4788 37.9204 25.2242 37.7338 24.936 37.617C24.5849 37.4739 24.2081 37.4045 23.829 37.413C23.178 37.413 22.665 37.563 22.29 37.869C22.1142 38.0043 21.9726 38.1791 21.8767 38.3792C21.7808 38.5793 21.7333 38.7992 21.738 39.021C21.738 39.384 21.882 39.681 22.167 39.921C22.5263 40.187 22.9421 40.3666 23.382 40.446L25.242 40.875C25.893 41.025 26.46 41.235 26.94 41.508C27.4029 41.7609 27.7909 42.1313 28.065 42.582C28.335 43.026 28.47 43.587 28.47 44.262C28.47 45.003 28.281 45.66 27.906 46.23C27.5066 46.817 26.9447 47.2747 26.289 47.547C25.587 47.862 24.729 48.021 23.715 48.021C22.953 48.021 22.287 47.931 21.72 47.751C21.1976 47.5942 20.7105 47.3375 20.286 46.995C19.9197 46.6857 19.6232 46.3023 19.416 45.87ZM10.581 35.796H7.902L5.43 40.11H5.322L2.826 35.796H0.036L3.717 41.745L0 47.793H2.583L5.142 43.548H5.247L7.797 47.793H10.521L6.759 41.82L10.581 35.799V35.796ZM18.762 45.771H13.671V35.796H11.301V47.796H18.762V45.771Z" fill="#44A476"/>
</g>
<defs>
<clipPath id="clip0_284_1039">
<rect width="48" height="48" fill="white"/>
</clipPath>
</defs>
</svg>
