<svg width="42" height="48" viewBox="0 0 42 48" fill="none" xmlns="http://www.w3.org/2000/svg">
<g clip-path="url(#clip0_284_1060)">
<path fill-rule="evenodd" clip-rule="evenodd" d="M42 13.5V42C42 43.5913 41.3679 45.1174 40.2426 46.2426C39.1174 47.3679 37.5913 48 36 48H33V45H36C36.7957 45 37.5587 44.6839 38.1213 44.1213C38.6839 43.5587 39 42.7957 39 42V13.5H33C31.8065 13.5 30.6619 13.0259 29.818 12.182C28.9741 11.3381 28.5 10.1935 28.5 9V3H12C11.2044 3 10.4413 3.31607 9.87868 3.87868C9.31607 4.44129 9 5.20435 9 6V33H6V6C6 4.4087 6.63214 2.88258 7.75736 1.75736C8.88258 0.632141 10.4087 0 12 0L28.5 0L42 13.5ZM4.8 35.55H0V47.547H2.373V43.521H4.782C5.643 43.521 6.375 43.35 6.978 43.002C7.587 42.651 8.052 42.177 8.367 41.58C8.69396 40.9535 8.85994 40.2556 8.85 39.549C8.85 38.799 8.691 38.121 8.376 37.518C8.06268 36.9186 7.58366 36.4219 6.996 36.087C6.396 35.727 5.667 35.55 4.8 35.55ZM6.435 39.549C6.44582 39.9443 6.35819 40.336 6.18 40.689C6.02014 40.9963 5.77131 41.2483 5.466 41.412C5.11676 41.5848 4.73048 41.6692 4.341 41.658H2.364V37.44H4.344C4.998 37.44 5.511 37.62 5.88 37.983C6.249 38.349 6.435 38.871 6.435 39.549ZM14.886 35.55H10.086V47.547H12.459V43.521H14.868C15.729 43.521 16.461 43.35 17.064 43.002C17.673 42.651 18.138 42.177 18.453 41.58C18.777 40.977 18.936 40.299 18.936 39.549C18.936 38.799 18.78 38.121 18.462 37.518C18.1487 36.9186 17.6697 36.4219 17.082 36.087C16.482 35.727 15.753 35.55 14.886 35.55ZM16.521 39.549C16.5318 39.9443 16.4442 40.336 16.266 40.689C16.1061 40.9963 15.8573 41.2483 15.552 41.412C15.2028 41.5849 14.8165 41.6694 14.427 41.658H12.45V37.44H14.43C15.084 37.44 15.597 37.62 15.966 37.983C16.335 38.349 16.521 38.871 16.521 39.549ZM24.822 37.539V47.547H22.44V37.536H19.038V35.55H28.233V37.536H24.822V37.539Z" fill="#C86C16"/>
</g>
<defs>
<clipPath id="clip0_284_1060">
<rect width="42" height="48" fill="white"/>
</clipPath>
</defs>
</svg>
