<svg width="48" height="48" viewBox="0 0 48 48" fill="none" xmlns="http://www.w3.org/2000/svg">
<path d="M19.506 21C20.0969 21 20.6821 20.8836 21.2281 20.6575C21.774 20.4313 22.2701 20.0998 22.688 19.682C23.1058 19.2641 23.4373 18.768 23.6635 18.2221C23.8896 17.6761 24.006 17.0909 24.006 16.5C24.006 15.9091 23.8896 15.3239 23.6635 14.7779C23.4373 14.232 23.1058 13.7359 22.688 13.318C22.2701 12.9002 21.774 12.5687 21.2281 12.3425C20.6821 12.1164 20.0969 12 19.506 12C18.3125 12 17.1679 12.4741 16.324 13.318C15.4801 14.1619 15.006 15.3065 15.006 16.5C15.006 17.6935 15.4801 18.8381 16.324 19.682C17.1679 20.5259 18.3125 21 19.506 21Z" fill="#61A0E6"/>
<path d="M42 42C42 43.5913 41.3679 45.1174 40.2426 46.2426C39.1174 47.3679 37.5913 48 36 48H12C10.4087 48 8.88258 47.3679 7.75736 46.2426C6.63214 45.1174 6 43.5913 6 42V6C6 4.4087 6.63214 2.88258 7.75736 1.75736C8.88258 0.632141 10.4087 0 12 0L28.5 0L42 13.5V42ZM12 3C11.2044 3 10.4413 3.31607 9.87868 3.87868C9.31607 4.44129 9 5.20435 9 6V36L15.672 29.328C15.9084 29.0921 16.2169 28.9419 16.5483 28.9011C16.8798 28.8604 17.2155 28.9314 17.502 29.103L24 33L30.471 23.94C30.5976 23.7629 30.7613 23.6155 30.9506 23.5081C31.1399 23.4006 31.3503 23.3356 31.5672 23.3176C31.7842 23.2996 32.0024 23.3291 32.2069 23.4039C32.4113 23.4788 32.597 23.5972 32.751 23.751L39 30V13.5H33C31.8065 13.5 30.6619 13.0259 29.818 12.182C28.9741 11.3381 28.5 10.1935 28.5 9V3H12Z" fill="#61A0E6"/>
</svg>
