<svg width="72" height="72" viewBox="0 0 72 72" fill="none" xmlns="http://www.w3.org/2000/svg">
<path fill-rule="evenodd" clip-rule="evenodd" d="M37.9926 5.07827L51.4924 18.5781C51.6808 18.7478 51.8301 18.9564 51.93 19.1895C52.0299 19.4226 52.078 19.6746 52.0709 19.9281V54.6419C52.0679 55.664 51.6605 56.6433 50.9379 57.3659C50.2152 58.0886 49.2359 58.496 48.2139 58.499H17.3571C16.3351 58.496 15.3558 58.0886 14.6331 57.3659C13.9104 56.6433 13.5031 55.664 13.5 54.6419V8.3568C13.5031 7.33477 13.9104 6.35548 14.6331 5.63279C15.3558 4.91011 16.3351 4.50276 17.3571 4.4997H36.6426C36.8961 4.49264 37.1481 4.54072 37.3811 4.64061C37.6142 4.7405 37.8228 4.88983 37.9926 5.07827ZM47.4424 19.9281L36.6426 9.12822V19.9281H47.4424ZM17.3571 54.6419H48.2139V23.7852H36.6426C35.6205 23.7821 34.6412 23.3748 33.9186 22.6521C33.1959 21.9294 32.7885 20.9501 32.7855 19.9281V8.3568H17.3571V54.6419ZM58.2424 25.3289L54.9 21.9865V30.536H54.9639V61.3927H24.1071V61.1998H20.25V61.3927C20.2531 62.4148 20.6604 63.3941 21.3831 64.1167C22.1058 64.8394 23.0851 65.2468 24.1071 65.2498H54.9639C55.9859 65.2468 56.9652 64.8394 57.6879 64.1167C58.4105 63.3941 58.8179 62.4148 58.8209 61.3927V26.6789C58.828 26.4254 58.7799 26.1734 58.68 25.9403C58.5801 25.7072 58.4308 25.4986 58.2424 25.3289Z" fill="#2D659F"/>
</svg>
